  0
SECTION
  2
HEADER
  9
$ACADVER
  1
AC1009
  0
ENDSEC
  0
SECTION
  2
TABLES
  0
TABLE
  2
LAYER
  70
1
  0
LAYER
  2
Layer_0
  70
0
  62
7
  6
CONTINUOUS
  0
ENDTAB
  0
ENDSEC
  0
SECTION
  2
ENTITIES
  0
POLYLINE
  5
90
  8
Layer_0
  62
7
  70
1
  66
1
  10
0
  20
0
  30
0
  0
VERTEX
  5
90
  8
Layer_0
  10
914
  20
369
  0
VERTEX
  5
91
  8
Layer_0
  10
414
  20
369
  0
VERTEX
  5
92
  8
Layer_0
  10
414
  20
869
  0
VERTEX
  5
93
  8
Layer_0
  10
914
  20
869
  0
SEQEND
  0
CIRCLE
  5
95
  8
Layer_0
  62
7
  10
534
  20
732
  30
0
  40
46
  0
POLYLINE
  5
95
  8
Layer_0
  62
7
  70
1
  66
1
  10
0
  20
0
  30
0
  0
VERTEX
  5
95
  8
Layer_0
  10
795.70319
  20
591.5
  0
VERTEX
  5
96
  8
Layer_0
  10
755
  20
662
  0
VERTEX
  5
97
  8
Layer_0
  10
714.29681
  20
591.5
  0
SEQEND
  0
POLYLINE
  5
99
  8
Layer_0
  62
7
  70
1
  66
1
  10
0
  20
0
  30
0
  0
VERTEX
  5
99
  8
Layer_0
  10
529.25189
  20
545.44299
  0
VERTEX
  5
9a
  8
Layer_0
  10
539.6051
  20
577.30701
  0
VERTEX
  5
9b
  8
Layer_0
  10
512.5
  20
597
  0
VERTEX
  5
9c
  8
Layer_0
  10
485.3949
  20
577.30695
  0
VERTEX
  5
9d
  8
Layer_0
  10
495.74811
  20
545.44299
  0
SEQEND
  0
POLYLINE
  5
9f
  8
Layer_0
  62
7
  66
1
  10
0
  20
0
  30
0
  0
VERTEX
  5
9f
  8
Layer_0
  10
638
  20
772
  0
VERTEX
  5
a0
  8
Layer_0
  10
638
  20
768.57995
  0
VERTEX
  5
a1
  8
Layer_0
  10
638
  20
765.18671
  0
VERTEX
  5
a2
  8
Layer_0
  10
638
  20
761.82017
  0
VERTEX
  5
a3
  8
Layer_0
  10
638
  20
758.48023
  0
VERTEX
  5
a4
  8
Layer_0
  10
638
  20
755.16679
  0
VERTEX
  5
a5
  8
Layer_0
  10
638
  20
751.87973
  0
VERTEX
  5
a6
  8
Layer_0
  10
638
  20
748.61895
  0
VERTEX
  5
a7
  8
Layer_0
  10
638
  20
745.38435
  0
VERTEX
  5
a8
  8
Layer_0
  10
638
  20
742.17583
  0
VERTEX
  5
a9
  8
Layer_0
  10
638
  20
738.99326
  0
VERTEX
  5
aa
  8
Layer_0
  10
638
  20
735.83656
  0
VERTEX
  5
ab
  8
Layer_0
  10
638
  20
732.70561
  0
VERTEX
  5
ac
  8
Layer_0
  10
638
  20
729.60031
  0
VERTEX
  5
ad
  8
Layer_0
  10
638
  20
726.52055
  0
VERTEX
  5
ae
  8
Layer_0
  10
638
  20
723.46624
  0
VERTEX
  5
af
  8
Layer_0
  10
638
  20
720.43725
  0
VERTEX
  5
b0
  8
Layer_0
  10
638
  20
717.43349
  0
VERTEX
  5
b1
  8
Layer_0
  10
638
  20
714.45485
  0
VERTEX
  5
b2
  8
Layer_0
  10
638
  20
711.50123
  0
VERTEX
  5
b3
  8
Layer_0
  10
638
  20
708.57252
  0
VERTEX
  5
b4
  8
Layer_0
  10
638
  20
702.78941
  0
VERTEX
  5
b5
  8
Layer_0
  10
638
  20
697.10467
  0
VERTEX
  5
b6
  8
Layer_0
  10
638
  20
691.51747
  0
VERTEX
  5
b7
  8
Layer_0
  10
638
  20
686.02696
  0
VERTEX
  5
b8
  8
Layer_0
  10
638
  20
680.63229
  0
VERTEX
  5
b9
  8
Layer_0
  10
638
  20
675.33262
  0
VERTEX
  5
ba
  8
Layer_0
  10
638
  20
670.12711
  0
VERTEX
  5
bb
  8
Layer_0
  10
638
  20
665.01491
  0
VERTEX
  5
bc
  8
Layer_0
  10
638
  20
659.99518
  0
VERTEX
  5
bd
  8
Layer_0
  10
638
  20
655.06707
  0
VERTEX
  5
be
  8
Layer_0
  10
638
  20
650.22975
  0
VERTEX
  5
bf
  8
Layer_0
  10
638
  20
645.48236
  0
VERTEX
  5
c0
  8
Layer_0
  10
638
  20
640.82406
  0
VERTEX
  5
c1
  8
Layer_0
  10
638
  20
636.25402
  0
VERTEX
  5
c2
  8
Layer_0
  10
638
  20
631.77138
  0
VERTEX
  5
c3
  8
Layer_0
  10
638
  20
627.3753
  0
VERTEX
  5
c4
  8
Layer_0
  10
638
  20
623.06494
  0
VERTEX
  5
c5
  8
Layer_0
  10
638
  20
618.83945
  0
VERTEX
  5
c6
  8
Layer_0
  10
638
  20
614.69799
  0
VERTEX
  5
c7
  8
Layer_0
  10
638
  20
610.63972
  0
VERTEX
  5
c8
  8
Layer_0
  10
638
  20
606.66379
  0
VERTEX
  5
c9
  8
Layer_0
  10
638
  20
602.76936
  0
VERTEX
  5
ca
  8
Layer_0
  10
638
  20
598.95558
  0
VERTEX
  5
cb
  8
Layer_0
  10
638
  20
595.22161
  0
VERTEX
  5
cc
  8
Layer_0
  10
638
  20
591.56661
  0
VERTEX
  5
cd
  8
Layer_0
  10
638
  20
587.98973
  0
VERTEX
  5
ce
  8
Layer_0
  10
638
  20
584.49013
  0
VERTEX
  5
cf
  8
Layer_0
  10
638
  20
581.06696
  0
VERTEX
  5
d0
  8
Layer_0
  10
638
  20
577.71938
  0
VERTEX
  5
d1
  8
Layer_0
  10
638
  20
574.44655
  0
VERTEX
  5
d2
  8
Layer_0
  10
638
  20
571.24762
  0
VERTEX
  5
d3
  8
Layer_0
  10
638
  20
568.12175
  0
VERTEX
  5
d4
  8
Layer_0
  10
638
  20
565.06809
  0
VERTEX
  5
d5
  8
Layer_0
  10
638
  20
562.08581
  0
VERTEX
  5
d6
  8
Layer_0
  10
638
  20
559.17405
  0
VERTEX
  5
d7
  8
Layer_0
  10
638
  20
556.33198
  0
VERTEX
  5
d8
  8
Layer_0
  10
638
  20
553.55874
  0
VERTEX
  5
d9
  8
Layer_0
  10
638
  20
550.8535
  0
VERTEX
  5
da
  8
Layer_0
  10
638
  20
548.21541
  0
VERTEX
  5
db
  8
Layer_0
  10
638
  20
545.64363
  0
VERTEX
  5
dc
  8
Layer_0
  10
638
  20
543.13731
  0
VERTEX
  5
dd
  8
Layer_0
  10
638
  20
540.69561
  0
VERTEX
  5
de
  8
Layer_0
  10
638
  20
538.31768
  0
VERTEX
  5
df
  8
Layer_0
  10
638
  20
536.00269
  0
VERTEX
  5
e0
  8
Layer_0
  10
638
  20
533.74978
  0
VERTEX
  5
e1
  8
Layer_0
  10
638
  20
531.55812
  0
VERTEX
  5
e2
  8
Layer_0
  10
638
  20
529.42686
  0
VERTEX
  5
e3
  8
Layer_0
  10
638
  20
527.35515
  0
VERTEX
  5
e4
  8
Layer_0
  10
638
  20
525.34215
  0
VERTEX
  5
e5
  8
Layer_0
  10
638
  20
523.38703
  0
VERTEX
  5
e6
  8
Layer_0
  10
638
  20
521.48892
  0
VERTEX
  5
e7
  8
Layer_0
  10
638
  20
519.647
  0
VERTEX
  5
e8
  8
Layer_0
  10
638
  20
517.86041
  0
VERTEX
  5
e9
  8
Layer_0
  10
638
  20
516.12832
  0
VERTEX
  5
ea
  8
Layer_0
  10
638
  20
514.44987
  0
VERTEX
  5
eb
  8
Layer_0
  10
638
  20
512.82423
  0
VERTEX
  5
ec
  8
Layer_0
  10
638
  20
511.25055
  0
VERTEX
  5
ed
  8
Layer_0
  10
638
  20
509.72798
  0
VERTEX
  5
ee
  8
Layer_0
  10
638
  20
508.25569
  0
VERTEX
  5
ef
  8
Layer_0
  10
638
  20
506.83283
  0
VERTEX
  5
f0
  8
Layer_0
  10
638
  20
505.45855
  0
VERTEX
  5
f1
  8
Layer_0
  10
638
  20
504.13201
  0
VERTEX
  5
f2
  8
Layer_0
  10
638
  20
502.85237
  0
VERTEX
  5
f3
  8
Layer_0
  10
638
  20
501.61878
  0
VERTEX
  5
f4
  8
Layer_0
  10
638
  20
500.4304
  0
VERTEX
  5
f5
  8
Layer_0
  10
638
  20
499.28638
  0
VERTEX
  5
f6
  8
Layer_0
  10
638
  20
498.18589
  0
VERTEX
  5
f7
  8
Layer_0
  10
638
  20
497.12808
  0
VERTEX
  5
f8
  8
Layer_0
  10
638
  20
496.11209
  0
VERTEX
  5
f9
  8
Layer_0
  10
638
  20
495.1371
  0
VERTEX
  5
fa
  8
Layer_0
  10
638
  20
494.20225
  0
VERTEX
  5
fb
  8
Layer_0
  10
638
  20
493.3067
  0
VERTEX
  5
fc
  8
Layer_0
  10
638
  20
492.44962
  0
VERTEX
  5
fd
  8
Layer_0
  10
638
  20
491.63014
  0
VERTEX
  5
fe
  8
Layer_0
  10
638
  20
490.84744
  0
VERTEX
  5
ff
  8
Layer_0
  10
638
  20
490.10066
  0
VERTEX
  5
100
  8
Layer_0
  10
638
  20
489.38896
  0
VERTEX
  5
101
  8
Layer_0
  10
638
  20
488.7115
  0
VERTEX
  5
102
  8
Layer_0
  10
638
  20
488.06743
  0
VERTEX
  5
103
  8
Layer_0
  10
638
  20
487.45592
  0
VERTEX
  5
104
  8
Layer_0
  10
638
  20
486.87611
  0
VERTEX
  5
105
  8
Layer_0
  10
638
  20
486.32716
  0
VERTEX
  5
106
  8
Layer_0
  10
638
  20
485.80823
  0
VERTEX
  5
107
  8
Layer_0
  10
638
  20
485.31848
  0
VERTEX
  5
108
  8
Layer_0
  10
638
  20
484.85706
  0
VERTEX
  5
109
  8
Layer_0
  10
638
  20
484.42312
  0
VERTEX
  5
10a
  8
Layer_0
  10
638
  20
483.63433
  0
VERTEX
  5
10b
  8
Layer_0
  10
638
  20
482.94536
  0
VERTEX
  5
10c
  8
Layer_0
  10
638
  20
482.34946
  0
VERTEX
  5
10d
  8
Layer_0
  10
638
  20
481.83987
  0
VERTEX
  5
10e
  8
Layer_0
  10
638
  20
481.40985
  0
VERTEX
  5
10f
  8
Layer_0
  10
638
  20
481.05264
  0
VERTEX
  5
110
  8
Layer_0
  10
638
  20
480.76149
  0
VERTEX
  5
111
  8
Layer_0
  10
638
  20
480.52966
  0
VERTEX
  5
112
  8
Layer_0
  10
638
  20
480.35038
  0
VERTEX
  5
113
  8
Layer_0
  10
638
  20
480.21692
  0
VERTEX
  5
114
  8
Layer_0
  10
638
  20
480.12251
  0
VERTEX
  5
115
  8
Layer_0
  10
638
  20
480.0604
  0
VERTEX
  5
116
  8
Layer_0
  10
638
  20
480.0061
  0
VERTEX
  5
117
  8
Layer_0
  10
638
  20
480
  0
SEQEND
  0
ENDSEC
  0
EOF
