<?xml version="1.0" standalone="no"?>
<!DOCTYPE svg PUBLIC "-//W3C//DTD SVG 1.1//EN"
  "http://www.w3.org/Graphics/SVG/1.1/DTD/svg11.dtd">
<svg width="302mm" height="301.99999999999994mm" viewBox="-81 -225.99999999999994 302 301.99999999999994" xmlns="http://www.w3.org/2000/svg" version="1.1">
	<title>svgOutput</title>
	<desc>made with tinkercad</desc>
<path d="M 208.58200073242188 -132.40299987792966 L 209.0338134765625 -131.0720062255859 L 214.88900756835938 -113.82299804687497 L 218.7169952392578 -94.57900238037108 L 220 -74.99999999999999 L 218.7169952392578 -55.42100143432616 L 214.88900756835938 -36.17699813842773 L 212.7769317626953 -29.954999923706048 L 208.58200073242188 -17.59700012207031 L 199.9040069580078 1.1102230246251565e-16 L 196.56100463867188 5.002999782562255 L 189.0030059814453 16.313999176025387 L 179.6334991455078 26.997999191284173 L 177.87518310546875 29.003000259399407 L 176.0659942626953 31.065999984741204 L 161.31399536132812 44.002998352050774 L 145 54.90399932861327 L 127.40299987792969 63.58200073242186 L 108.822998046875 69.88899993896483 L 89.5790023803711 73.71700286865233 L 70 74.99999999999999 L 50.42100143432617 73.71700286865233 L 31.177000045776367 69.88899993896483 L 12.597000122070312 63.58200073242186 L -5 54.90399932861327 L -21.31399917602539 44.002998352050774 L -36.066001892089844 31.065999984741204 L -37.875179290771484 29.003000259399407 L -39.63349533081055 26.997999191284173 L -49.00299835205078 16.313999176025387 L -59.90399932861328 1.1102230246251565e-16 L -68.58200073242188 -17.59700012207031 L -74.88899993896484 -36.17699813842773 L -78.71700286865234 -55.42100143432616 L -80 -74.99999999999999 L -78.71700286865234 -94.57900238037108 L -74.88899993896484 -113.82299804687497 L -68.58200073242188 -132.40299987792966 L -59.90399932861328 -149.99999999999997 L -49.00299835205078 -166.3139953613281 L -36.066001892089844 -181.06599426269528 L -21.31399917602539 -194.00300598144526 L -19.003000259399414 -195.54721069335932 L -16.99799919128418 -196.88694763183588 L -5 -204.90400695800776 L 0 -207.3697662353515 L 12.597000122070312 -213.58200073242182 L 31.177000045776367 -219.88900756835932 L 50.42100143432617 -223.71699523925776 L 50.99800109863281 -223.75480651855463 L 70 -224.99999999999994 L 71.00299835205078 -224.93428039550776 L 89.5790023803711 -223.71699523925776 L 108.822998046875 -219.88900756835932 L 127.40299987792969 -213.58200073242182 L 145 -204.90400695800776 L 161.31399536132812 -194.00300598144526 L 165.333251953125 -190.4782562255859 L 176.0659942626953 -181.06599426269528 L 179.87155151367188 -176.7265472412109 L 189.0030059814453 -166.3139953613281 L 199.9040069580078 -149.99999999999997 L 208.58200073242188 -132.40299987792966 M 110.27100372314453 -43.09999847412109 L 122.18299865722656 -48.97900009155272 L 111.86502838134766 -54.07042312622069 L 110.27100372314453 -54.8569984436035 L 108.36100006103516 -68.00299835205077 L 100.32887268066406 -59.76296234130858 L 99.08899688720703 -58.491001129150376 L 85.99800109863281 -60.73600006103514 L 91.35142517089844 -50.55314254760741 L 92.17900085449219 -48.97900009155272 L 85.99800109863281 -37.222000122070305 L 97.33763885498047 -39.16665649414062 L 99.08899688720703 -39.46699905395507 L 108.36100006103516 -29.954999923706048 L 110.015380859375 -41.3407859802246 L 110.27100372314453 -43.09999847412109 M 40.270999908447266 -8.14299964904785 L 52.18299865722656 -14.020999908447262 L 41.864898681640625 -19.113353729248043 L 40.270999908447266 -19.89999961853027 L 38.361000061035156 -33.044998168945305 L 30.330078125 -24.806201934814446 L 29.089000701904297 -23.53300094604492 L 15.998000144958496 -25.77799987792968 L 21.35142707824707 -15.595144271850582 L 22.179000854492188 -14.020999908447262 L 15.998000144958496 -2.2639999389648433 L 27.337636947631836 -4.208655357360839 L 29.089000701904297 -4.508999824523925 L 33.48423385620117 1.1102230246251565e-16 L 38.361000061035156 5.002999782562255 L 39.087894439697266 1.1102230246251565e-16 L 40.01525115966797 -6.382763385772703 L 40.270999908447266 -8.14299964904785 M 108.8550033569336 -133.99999999999997 L 111.78299713134766 -131.0720062255859 L 123 -119.85500335693357 L 134.2169952392578 -131.0720062255859 L 137.14500427246094 -133.99999999999997 L 123 -148.1450042724609 L 108.8550033569336 -133.99999999999997 M 29.04184913635254 -97.18125152587888 L 26.99799919128418 -96.00099945068357 L 26.99799919128418 -85.99900054931639 L 31.00260353088379 -83.6869430541992 L 35.65999984741211 -80.9980010986328 L 44.323001861572266 -85.99900054931639 L 44.323001861572266 -96.00099945068357 L 35.65999984741211 -101.00299835205075 L 29.04184913635254 -97.18125152587888 M 71.00299835205078 -156.00300598144528 L 50.99800109863281 -156.00300598144528 L 50.99800109863281 -135.99800109863278 L 71.00299835205078 -135.99800109863278 L 71.00299835205078 -156.00300598144528 M -19.003000259399414 -157.00300598144528 L -19.003000259399414 1.1102230246251565e-16 L -19.003000259399414 8.001999855041502 L -16.99799919128418 8.001999855041502 L -16.99799919128418 1.1102230246251565e-16 L -16.99799919128418 -157.00300598144528 L -19.003000259399414 -157.00300598144528 M 157.0030059814453 29.003000259399407 L 157.0030059814453 26.997999191284173 L 15.998000144958496 26.997999191284173 L -8.001999855041504 26.997999191284173 L -8.001999855041504 29.003000259399407 L 157.0030059814453 29.003000259399407 z" fill="none" stroke="rgb(255,0,0)" stroke-width="0.001mm" />
</svg>